<?xml version="1.0" encoding="UTF-8" standalone="no"?>
<svg
   xmlns:dc="http://purl.org/dc/elements/1.1/"
   xmlns:cc="http://creativecommons.org/ns#"
   xmlns:rdf="http://www.w3.org/1999/02/22-rdf-syntax-ns#"
   xmlns:svg="http://www.w3.org/2000/svg"
   xmlns="http://www.w3.org/2000/svg"
   xmlns:sodipodi="http://sodipodi.sourceforge.net/DTD/sodipodi-0.dtd"
   xmlns:inkscape="http://www.inkscape.org/namespaces/inkscape"
   version="1.1"
   id="Capa_1"
   x="0px"
   y="0px"
   viewBox="0 0 54 54"
   style="enable-background:new 0 0 54 54;"
   xml:space="preserve"
   width="512px"
   height="512px"
   class=""
   sodipodi:docname="down-arrow.svg"
   inkscape:version="0.92.4 (5da689c313, 2019-01-14)"><sodipodi:namedview
   pagecolor="#ffffff"
   bordercolor="#666666"
   borderopacity="1"
   objecttolerance="10"
   gridtolerance="10"
   guidetolerance="10"
   inkscape:pageopacity="0"
   inkscape:pageshadow="2"
   inkscape:window-width="1366"
   inkscape:window-height="699"
   id="namedview12"
   showgrid="false"
   inkscape:zoom="0.4609375"
   inkscape:cx="256"
   inkscape:cy="256"
   inkscape:window-x="0"
   inkscape:window-y="0"
   inkscape:window-maximized="1"
   inkscape:current-layer="Capa_1" /><metadata
   id="metadata23"><rdf:RDF><cc:Work
       rdf:about=""><dc:format>image/svg+xml</dc:format><dc:type
         rdf:resource="http://purl.org/dc/dcmitype/StillImage" /><dc:title /></cc:Work></rdf:RDF></metadata><defs
   id="defs21" /><g
   id="g16"><path
     style="fill:#ffffff;stroke-width:0.16290887;fill-opacity:1"
     d="m 23.39854,38.098418 c 1.223609,0 2.215235,-0.991464 2.215235,-2.215234 V 19.047855 c 0,-1.223608 -0.991464,-2.215236 -2.215235,-2.215236 -1.223608,0 -2.215234,0.991464 -2.215234,2.215236 v 16.835329 c 0,1.22377 0.991464,2.215234 2.215234,2.215234 z"
     id="path4-6" /><g
     id="g5"
     transform="matrix(0.98181571,0,0,0.98180475,0.98222255,0.98237962)"><title
       id="title2">background</title><rect
       id="canvas_background"
       height="55"
       width="55"
       y="-1"
       x="-1"
       style="fill:#3aa7f8;fill-opacity:1" /></g></g> <path
   id="path8-3"
   data-old_color="#FFFFFF"
   class=""
   data-original="#FFFFFF"
   d="m 27.000001,47.07136 c -0.833475,0 -1.509919,-0.674934 -1.509919,-1.509919 V 6.3035333 c 0,-0.8349853 0.676444,-1.5099193 1.509919,-1.5099193 0.833475,0 1.509919,0.674934 1.509919,1.5099193 V 45.561441 c 0,0.834985 -0.676444,1.509919 -1.509919,1.509919 z"
   style="fill:#ffffff;stroke-width:1.50991952" /><polygon
   transform="matrix(1.5099195,0,0,1.5099195,-13.767827,-14.08038)"
   id="polygon10-6"
   data-old_color="#FFFFFF"
   class=""
   data-original="#FFFFFF"
   points="17.707,29.793 27,39.086 36.293,29.793 37.707,31.207 27,41.914 16.293,31.207 "
   style="fill:#ffffff" /></svg>