<?xml version="1.0" encoding="UTF-8" standalone="no"?>
<svg
   xmlns:dc="http://purl.org/dc/elements/1.1/"
   xmlns:cc="http://creativecommons.org/ns#"
   xmlns:rdf="http://www.w3.org/1999/02/22-rdf-syntax-ns#"
   xmlns:svg="http://www.w3.org/2000/svg"
   xmlns="http://www.w3.org/2000/svg"
   xmlns:sodipodi="http://sodipodi.sourceforge.net/DTD/sodipodi-0.dtd"
   xmlns:inkscape="http://www.inkscape.org/namespaces/inkscape"
   class=""
   height="512px"
   width="512px"
   xml:space="preserve"
   style="enable-background:new 0 0 54 54;"
   viewBox="0 0 54 54"
   y="0px"
   x="0px"
   id="Capa_1"
   version="1.1"
   sodipodi:docname="left-arrow.svg"
   inkscape:version="0.92.4 (5da689c313, 2019-01-14)"><sodipodi:namedview
   pagecolor="#ffffff"
   bordercolor="#666666"
   borderopacity="1"
   objecttolerance="10"
   gridtolerance="10"
   guidetolerance="10"
   inkscape:pageopacity="0"
   inkscape:pageshadow="2"
   inkscape:window-width="1366"
   inkscape:window-height="699"
   id="namedview12"
   showgrid="false"
   inkscape:zoom="0.4609375"
   inkscape:cx="256"
   inkscape:cy="256"
   inkscape:window-x="0"
   inkscape:window-y="0"
   inkscape:window-maximized="1"
   inkscape:current-layer="Capa_1" /><metadata
   id="metadata23"><rdf:RDF><cc:Work
       rdf:about=""><dc:format>image/svg+xml</dc:format><dc:type
         rdf:resource="http://purl.org/dc/dcmitype/StillImage" /><dc:title /></cc:Work></rdf:RDF></metadata><defs
   id="defs21" /><g
   id="g16"><path
     id="path4-6"
     d="m 23.39854,38.098418 c 1.223609,0 2.215235,-0.991464 2.215235,-2.215234 V 19.047855 c 0,-1.223608 -0.991464,-2.215236 -2.215235,-2.215236 -1.223608,0 -2.215234,0.991464 -2.215234,2.215236 v 16.835329 c 0,1.22377 0.991464,2.215234 2.215234,2.215234 z"
     style="fill:#ffffff;stroke-width:0.16290887;fill-opacity:1" /><g
     transform="matrix(0.98181571,0,0,0.98180475,0.98222255,0.98237962)"
     id="g5"><title
       id="title2">background</title><rect
       style="fill:#3aa7f8;fill-opacity:1"
       x="-1"
       y="-1"
       width="55"
       height="55"
       id="canvas_background" /></g><path
     id="path8"
     class=""
     data-original="#FFFFFF"
     d="M 47.943095,28.528121 H 8.2119016 c -0.843524,0 -1.5281225,-0.683072 -1.5281225,-1.528123 0,-0.845053 0.6845985,-1.528123 1.5281225,-1.528123 H 47.943095 c 0.843523,0 1.528123,0.68307 1.528123,1.528123 0,0.845051 -0.6846,1.528123 -1.528123,1.528123 z"
     style="fill:#ffffff;stroke-width:1.52812278" /><polygon
     transform="matrix(1.5281229,0,0,1.5281229,-13.181818,-14.259318)"
     id="polygon10"
     class=""
     data-original="#FFFFFF"
     points="23.707,17.707 14.414,27 23.707,36.293 22.293,37.707 11.586,27 22.293,16.293 "
     style="fill:#ffffff" /></g> </svg>