<?xml version="1.0" encoding="UTF-8" standalone="no"?>
<svg
   xmlns:dc="http://purl.org/dc/elements/1.1/"
   xmlns:cc="http://creativecommons.org/ns#"
   xmlns:rdf="http://www.w3.org/1999/02/22-rdf-syntax-ns#"
   xmlns:svg="http://www.w3.org/2000/svg"
   xmlns="http://www.w3.org/2000/svg"
   xmlns:sodipodi="http://sodipodi.sourceforge.net/DTD/sodipodi-0.dtd"
   xmlns:inkscape="http://www.inkscape.org/namespaces/inkscape"
   version="1.1"
   id="Capa_1"
   x="0px"
   y="0px"
   viewBox="0 0 54 54"
   style="enable-background:new 0 0 54 54;"
   xml:space="preserve"
   width="512px"
   height="512px"
   class=""
   sodipodi:docname="pause.svg"
   inkscape:version="0.92.4 (5da689c313, 2019-01-14)"><metadata
   id="metadata23"><rdf:RDF><cc:Work
       rdf:about=""><dc:format>image/svg+xml</dc:format><dc:type
         rdf:resource="http://purl.org/dc/dcmitype/StillImage" /><dc:title /></cc:Work></rdf:RDF></metadata><defs
   id="defs21" /><sodipodi:namedview
   pagecolor="#ffffff"
   bordercolor="#666666"
   borderopacity="1"
   objecttolerance="10"
   gridtolerance="10"
   guidetolerance="10"
   inkscape:pageopacity="0"
   inkscape:pageshadow="2"
   inkscape:window-width="1366"
   inkscape:window-height="699"
   id="namedview19"
   showgrid="false"
   inkscape:zoom="0.35355339"
   inkscape:cx="-95.980876"
   inkscape:cy="305.88319"
   inkscape:window-x="0"
   inkscape:window-y="0"
   inkscape:window-maximized="1"
   inkscape:current-layer="g16"
   showguides="true"
   inkscape:guide-bbox="true" /><g
   id="g16"><path
     inkscape:connector-curvature="0"
     style="fill:#ffffff;stroke-width:0.16290887;fill-opacity:1"
     d="m 23.39854,38.098418 c 1.223609,0 2.215235,-0.991464 2.215235,-2.215234 V 19.047855 c 0,-1.223608 -0.991464,-2.215236 -2.215235,-2.215236 -1.223608,0 -2.215234,0.991464 -2.215234,2.215236 v 16.835329 c 0,1.22377 0.991464,2.215234 2.215234,2.215234 z"
     id="path4-6" /><g
     id="g5"
     transform="matrix(0.98181571,0,0,0.98180475,0.98222255,0.98237962)"><title
       id="title2">background</title><rect
       id="canvas_background"
       height="55"
       width="55"
       y="-1"
       x="-1"
       style="fill:#ff0000" /></g><path
     inkscape:connector-curvature="0"
     style="fill:#ffffff;fill-opacity:1;stroke-width:0.19199522"
     d="m 21.869253,39.469512 c 1.442076,0 2.610751,-1.168484 2.610751,-2.610751 V 17.017589 c 0,-1.442074 -1.16848,-2.610752 -2.610751,-2.610752 -1.442074,0 -2.610749,1.168483 -2.610749,2.610752 v 19.841172 c 0,1.442267 1.168485,2.610751 2.610749,2.610751 z"
     id="path4-6-7" /><path
     inkscape:connector-curvature="0"
     style="fill:#ffffff;fill-opacity:1;stroke-width:0.19199522"
     d="m 32.311876,39.469512 c 1.442078,0 2.610752,-1.168484 2.610752,-2.610751 V 17.017589 c 0,-1.442074 -1.16848,-2.610752 -2.610749,-2.610752 -1.442271,0 -2.610559,1.168675 -2.610559,2.610752 v 19.841172 c 0,1.442267 1.168486,2.610751 2.610556,2.610751 z"
     id="path6" /></g> </svg>