<?xml version="1.0" encoding="UTF-8" standalone="no"?>
<svg
   xmlns:dc="http://purl.org/dc/elements/1.1/"
   xmlns:cc="http://creativecommons.org/ns#"
   xmlns:rdf="http://www.w3.org/1999/02/22-rdf-syntax-ns#"
   xmlns:svg="http://www.w3.org/2000/svg"
   xmlns="http://www.w3.org/2000/svg"
   class=""
   height="512px"
   width="512px"
   xml:space="preserve"
   style="enable-background:new 0 0 54 54;"
   viewBox="0 0 54 54"
   y="0px"
   x="0px"
   id="Capa_1"
   version="1.1"><metadata
   id="metadata23"><rdf:RDF><cc:Work
       rdf:about=""><dc:format>image/svg+xml</dc:format><dc:type
         rdf:resource="http://purl.org/dc/dcmitype/StillImage" /><dc:title></dc:title></cc:Work></rdf:RDF></metadata><defs
   id="defs21" /><g
   id="g16"><path
     id="path4-6"
     d="m 23.39854,38.098418 c 1.223609,0 2.215235,-0.991464 2.215235,-2.215234 V 19.047855 c 0,-1.223608 -0.991464,-2.215236 -2.215235,-2.215236 -1.223608,0 -2.215234,0.991464 -2.215234,2.215236 v 16.835329 c 0,1.22377 0.991464,2.215234 2.215234,2.215234 z"
     style="fill:#ffffff;stroke-width:0.16290887;fill-opacity:1" /><g
     transform="matrix(0.98181571,0,0,0.98180475,0.98222255,0.98237962)"
     id="g5"><title
       id="title2">background</title><rect
       style="fill:#4aaa41"
       x="-1"
       y="-1"
       width="55"
       height="55"
       id="canvas_background" /></g><path
     id="path8"
     class=""
     data-original="#FFFFFF"
     d="m 38.85501,27.674744 -18.150698,10.47983 c -0.55771,0.322124 -1.253637,-0.08053 -1.253637,-0.723576 v -20.95966 c 0,-0.643045 0.69593,-1.0457 1.253637,-0.723576 l 18.150695,10.479831 c 0.557707,0.322123 0.557707,1.126229 3e-6,1.447151 z"
     style="fill:#ffffff;stroke-width:1.20195329" /><path
     id="path10"
     class=""
     data-original="#FFFFFF"
     d="m 20.288433,39.469512 c -1.12503,0 -2.039715,-0.914687 -2.039715,-2.038514 v -20.95966 c 0,-1.123827 0.914684,-2.038513 2.039715,-2.038513 0.354577,0 0.706748,0.09375 1.016853,0.274045 l 18.150698,10.479831 c 0.638238,0.368999 1.019258,1.02767 1.019258,1.765669 0,0.737999 -0.38102,1.396671 -1.019258,1.765669 L 21.305285,39.19787 c -0.310105,0.177889 -0.662275,0.271642 -1.016852,0.271642 z m 0.364193,-22.363543 v 19.6916 L 37.70474,26.95237 Z"
     style="fill:#ffffff;stroke-width:1.20195329" /></g> </svg>