<?xml version="1.0" encoding="UTF-8" standalone="no"?>
<svg
   xmlns:dc="http://purl.org/dc/elements/1.1/"
   xmlns:cc="http://creativecommons.org/ns#"
   xmlns:rdf="http://www.w3.org/1999/02/22-rdf-syntax-ns#"
   xmlns:svg="http://www.w3.org/2000/svg"
   xmlns="http://www.w3.org/2000/svg"
   xmlns:sodipodi="http://sodipodi.sourceforge.net/DTD/sodipodi-0.dtd"
   xmlns:inkscape="http://www.inkscape.org/namespaces/inkscape"
   version="1.1"
   id="Capa_1"
   x="0px"
   y="0px"
   viewBox="0 0 54 54"
   style="enable-background:new 0 0 54 54;"
   xml:space="preserve"
   width="512px"
   height="512px"
   class=""
   sodipodi:docname="right-arrow.svg"
   inkscape:version="0.92.4 (5da689c313, 2019-01-14)"><sodipodi:namedview
   pagecolor="#ffffff"
   bordercolor="#666666"
   borderopacity="1"
   objecttolerance="10"
   gridtolerance="10"
   guidetolerance="10"
   inkscape:pageopacity="0"
   inkscape:pageshadow="2"
   inkscape:window-width="1366"
   inkscape:window-height="699"
   id="namedview12"
   showgrid="false"
   inkscape:zoom="0.4609375"
   inkscape:cx="256"
   inkscape:cy="256"
   inkscape:window-x="0"
   inkscape:window-y="0"
   inkscape:window-maximized="1"
   inkscape:current-layer="Capa_1" /><metadata
   id="metadata23"><rdf:RDF><cc:Work
       rdf:about=""><dc:format>image/svg+xml</dc:format><dc:type
         rdf:resource="http://purl.org/dc/dcmitype/StillImage" /><dc:title /></cc:Work></rdf:RDF></metadata><defs
   id="defs21" /><g
   id="g16"><path
     style="fill:#ffffff;stroke-width:0.16290887;fill-opacity:1"
     d="m 23.39854,38.098418 c 1.223609,0 2.215235,-0.991464 2.215235,-2.215234 V 19.047855 c 0,-1.223608 -0.991464,-2.215236 -2.215235,-2.215236 -1.223608,0 -2.215234,0.991464 -2.215234,2.215236 v 16.835329 c 0,1.22377 0.991464,2.215234 2.215234,2.215234 z"
     id="path4-6" /><g
     id="g5"
     transform="matrix(0.98181571,0,0,0.98180475,0.98222255,0.98237962)"><title
       id="title2">background</title><rect
       id="canvas_background"
       height="55"
       width="55"
       y="-1"
       x="-1"
       style="fill:#3aa7f8;fill-opacity:1" /></g></g> <path
   id="path8-3"
   data-old_color="#FFFFFF"
   class=""
   data-original="#FFFFFF"
   d="M 45.673465,28.513418 H 6.324582 c -0.8354072,0 -1.5134186,-0.676499 -1.5134186,-1.513418 0,-0.83692 0.6780114,-1.513418 1.5134186,-1.513418 h 39.348883 c 0.835408,0 1.513421,0.676498 1.513421,1.513418 0,0.836919 -0.678013,1.513418 -1.513421,1.513418 z"
   style="fill:#ffffff;stroke-width:1.51341867" /><polygon
   transform="matrix(1.5134186,0,0,1.5134186,-13.34986,-13.862302)"
   id="polygon10-6"
   data-old_color="#FFFFFF"
   class=""
   data-original="#FFFFFF"
   points="30.707,37.707 29.293,36.293 38.586,27 29.293,17.707 30.707,16.293 41.414,27 "
   style="fill:#ffffff" /></svg>